<?xml version="1.0" encoding="utf-8"?>
<!-- Generator: Adobe Illustrator 25.1.0, SVG Export Plug-In . SVG Version: 6.00 Build 0)  -->
<svg version="1.1" id="Слой_1" xmlns="http://www.w3.org/2000/svg" xmlns:xlink="http://www.w3.org/1999/xlink" x="0px" y="0px"
	 viewBox="0 0 960 560" style="enable-background:new 0 0 960 560;" xml:space="preserve">
<style type="text/css">
	.st0{fill:#004600;}
</style>
<g>
	<g>
		<path class="st0" d="M559.98,268.6c-0.02,5.13-0.2,10.25-0.59,15.36c-0.18,2.3-0.4,4.59-0.66,6.88c-0.19,1.69-1.1,6.63,0.16-0.93
			c-0.23,1.35-0.4,2.71-0.62,4.06c-1.59,9.78-3.94,19.43-7,28.85c-1.51,4.63-3.66,9.11-5.06,13.76c0.08-0.27,2.46-5.63,0.87-2.07
			c-0.54,1.21-1.07,2.42-1.62,3.63c-1.1,2.4-2.26,4.78-3.46,7.14c-4.38,8.59-9.39,16.85-14.99,24.7c-1.27,1.78-2.65,3.48-3.89,5.27
			c4.47-6.46,0.1-0.21-1.14,1.28c-3.34,4.03-6.84,7.92-10.49,11.66c-3.04,3.12-6.18,6.14-9.42,9.05c-1.62,1.46-3.27,2.89-4.93,4.29
			c-1,0.84-2.01,1.67-3.03,2.5c-0.68,0.55-1.36,1.09-2.05,1.63c2.97-2.28,3.72-2.86,2.27-1.75c-7.68,5.49-15.35,10.81-23.63,15.39
			c-4.24,2.34-8.56,4.53-12.96,6.55c-1.73,0.79-9.06,3.2-1.56,0.75c-2.52,0.82-4.95,1.98-7.44,2.88
			c-9.27,3.37-18.79,6.03-28.46,7.96c-2.23,0.44-4.46,0.85-6.7,1.21c-1.34,0.22-2.72,0.35-4.06,0.62c6.81-1.38,3.44-0.46,1.61-0.24
			c-5.28,0.62-10.59,1.02-15.91,1.21c-10.26,0.36-20.44-0.2-30.63-1.29c-4.01-0.43,2.01,0.26,2.3,0.32
			c-1.32-0.29-2.72-0.4-4.06-0.62c-2.24-0.37-4.47-0.77-6.7-1.21c-5.3-1.05-10.55-2.33-15.74-3.82c-4.29-1.23-8.53-2.61-12.72-4.14
			c-2.09-0.76-4.14-1.58-6.21-2.38c-4.63-1.78,5.36,2.39,0.84,0.37c-1.41-0.63-2.83-1.25-4.23-1.9
			c-8.56-3.97-16.84-8.56-24.74-13.73c-4.03-2.64-7.81-5.59-11.77-8.33c6.52,4.51,0.08-0.01-1.28-1.14
			c-2.01-1.67-3.99-3.38-5.94-5.13c-7.13-6.41-13.79-13.34-19.91-20.72c-1.23-1.48-5.56-7.68-1.14-1.28
			c-1.36-1.97-2.88-3.85-4.27-5.8c-2.91-4.11-5.66-8.32-8.24-12.64c-2.25-3.77-4.38-7.61-6.37-11.52c-1.2-2.35-2.35-4.73-3.46-7.14
			c-0.37-0.8-0.73-1.61-1.09-2.41c-2.66-6,1.36,3.58-0.16-0.38c-3.55-9.18-6.64-18.47-8.9-28.06c-1.04-4.41-1.92-8.85-2.65-13.32
			c-0.22-1.34-0.35-2.72-0.62-4.06c1.33,6.54,0.5,3.94,0.32,2.3c-0.32-2.98-0.65-5.95-0.87-8.94c-0.74-10-0.72-20.04,0.05-30.04
			c0.2-2.53,0.44-5.05,0.74-7.56c0.21-1.83,1.14-5.2-0.24,1.61c0.27-1.33,0.4-2.71,0.62-4.06c0.8-4.91,1.79-9.8,2.97-14.63
			c2.34-9.63,6.03-18.6,9.09-27.97c-2.44,7.47-0.1,0.29,0.75-1.56c1.01-2.2,2.07-4.38,3.16-6.55c2.28-4.51,4.73-8.92,7.35-13.24
			c2.27-3.74,4.67-7.4,7.18-10.98c1.5-2.14,3.19-4.17,4.65-6.34c-0.15,0.23-3.77,4.73-1.34,1.76c1.11-1.35,2.19-2.71,3.31-4.05
			c6.17-7.34,12.87-14.22,20.05-20.59c1.63-1.45,3.28-2.87,4.96-4.26c1.49-1.24,7.74-5.6,1.28-1.14c3.95-2.73,7.73-5.69,11.77-8.33
			c8.09-5.29,16.56-9.97,25.34-14.01c1.2-0.55,2.42-1.08,3.63-1.62c4.34-1.94-4.51,1.72-1.45,0.62c2.29-0.83,4.54-1.8,6.83-2.63
			c4.61-1.68,9.29-3.18,14.01-4.5c4.77-1.34,9.59-2.49,14.45-3.46c2.23-0.44,4.46-0.85,6.7-1.21c1.13-0.18,2.25-0.34,3.38-0.52
			c1.9-0.27,0.9-0.14-2.98,0.39c0.91-0.12,1.82-0.23,2.73-0.33c10.17-1.15,20.43-1.5,30.66-1.07c4.62,0.2,9.23,0.55,13.83,1.07
			c1.78,0.2,6.42,1.33-0.93-0.16c1.33,0.27,2.71,0.4,4.06,0.62c2.69,0.44,5.37,0.93,8.03,1.48c9.43,1.95,18.72,4.6,27.76,7.92
			c2.28,0.84,4.51,1.9,6.82,2.65c-7.35-2.4-0.33-0.11,1.56,0.75c4.4,2.02,8.72,4.21,12.96,6.55c8.49,4.7,16.17,10.31,24.15,15.79
			c-6.58-4.52,0.29,0.3,1.79,1.56c1.84,1.54,3.65,3.11,5.44,4.71c3.56,3.2,7.01,6.54,10.33,9.99c3.32,3.46,6.52,7.03,9.58,10.72
			c1.27,1.54,5.56,7.69,1.14,1.28c1.49,2.15,3.14,4.2,4.65,6.34c5.54,7.89,10.51,16.19,14.83,24.81c0.99,1.97,1.94,3.96,2.86,5.96
			c0.87,1.89,3.15,8.91,0.75,1.56c1.65,5.06,3.85,9.94,5.47,15.03c2.93,9.23,5.17,18.69,6.7,28.25c0.18,1.12,0.29,2.27,0.51,3.38
			c-1.49-7.35-0.36-2.71-0.16-0.93c0.26,2.29,0.48,4.58,0.66,6.88C559.79,258.35,559.97,263.47,559.98,268.6
			c0.04,12.55,11.01,24.58,24,24c12.97-0.58,24.05-10.55,24-24c-0.16-44.7-13.76-89.72-39.9-126.14
			c-26.79-37.32-63.36-65.32-106.57-81.03c-84.61-30.77-184.83-3.37-241.85,66.31c-29.47,36.01-47.01,79.04-50.62,125.5
			c-3.46,44.62,7.78,90.69,30.98,128.92c22.43,36.95,56.14,67.87,95.62,85.69c43.31,19.55,90.73,25.18,137.4,15.89
			c86.71-17.27,158.08-90.83,171.73-178.35c1.9-12.21,3.16-24.43,3.2-36.78c0.04-12.56-11.07-24.58-24-24
			C570.94,245.18,560.03,255.14,559.98,268.6z"/>
	</g>
</g>
<g>
	<path class="st0" d="M425.25,345.19h-64c-2.92,0-5.4-1.11-7.44-3.34c-2.04-2.23-3.06-4.93-3.06-8.12c0-3.09,1.02-5.78,3.06-8.05
		c2.04-2.27,4.52-3.41,7.44-3.41h21.5v-85.56H361.5c-2.92,0-5.4-1.14-7.44-3.41c-2.04-2.27-3.06-4.96-3.06-8.05
		c0-3.18,1.02-5.94,3.06-8.26c2.04-2.32,4.52-3.48,7.44-3.48h32c2.92,0,5.39,1.16,7.44,3.48c2.04,2.32,3.06,5.07,3.06,8.26v97.02h21
		c2.92,0,5.44,1.12,7.56,3.34c2.13,2.23,3.19,4.94,3.19,8.12c0,3.19-1.04,5.89-3.13,8.12C430.54,344.07,428.08,345.19,425.25,345.19
		z M382.5,154.01h11c2.92,0,5.39,1.11,7.44,3.34c2.04,2.23,3.06,4.94,3.06,8.12v9.82c0,3.19-1.02,5.94-3.06,8.26
		c-2.04,2.32-4.52,3.48-7.44,3.48h-11.25c-3,0-5.52-1.18-7.56-3.55c-2.04-2.36-3.02-5-2.94-7.91l0.25-10.1
		c0-3.18,1.02-5.89,3.06-8.12C377.1,155.13,379.58,154.01,382.5,154.01z"/>
</g>
</svg>
